<svg width="26" height="26" viewBox="0 0 26 26" fill="none" xmlns="http://www.w3.org/2000/svg">
<path d="M7.15563 22.2787C10.2778 24.0045 18.6567 21.3583 21.9845 15.5945C24.5394 11.1692 23.4865 4.54886 18.8679 1.88227C14.2492 -0.784319 7.98938 1.614 5.43441 6.03933C2.3797 11.3302 3.90534 19.8386 6.78343 22.0346C6.75429 22.0625 6.73819 22.1036 6.74422 22.1472L6.74532 22.1552C6.75458 22.2221 6.69803 22.2811 6.63072 22.2865C6.45631 22.3006 6.20154 22.3711 6.00776 22.5823C5.86082 22.6341 5.58803 22.8024 5.67239 23.0618C5.77783 23.3861 6.12903 23.5889 6.50896 23.6912C6.8889 23.7935 7.26295 23.8046 7.32383 23.547C7.38471 23.2895 7.31298 23.1603 7.28175 23.113C7.27371 23.1009 7.2753 23.0787 7.27762 23.0465C7.28415 22.9554 7.29648 22.7838 7.11402 22.5282C7.10628 22.5174 7.09964 22.5055 7.09479 22.4931L7.08573 22.4699C7.06057 22.4055 7.08201 22.3323 7.13791 22.2916L7.15563 22.2787Z" fill="#FFD43B"/>
</svg>
