<svg width="375" height="150" viewBox="0 0 375 150" fill="none" xmlns="http://www.w3.org/2000/svg">
<g clip-path="url(#clip0_4_26)">
<path d="M431.109 136.873C449.161 136.253 458.374 135.242 463.075 132.227C469.093 124.174 444.272 122.677 431.109 122.935C427.348 113.024 416.379 112.095 411.365 112.869C395.57 99.2416 370.937 104.094 360.595 108.224C358.339 101.41 352.133 101.771 349.313 102.803C327.501 56.9648 257.488 72.8638 225.208 86.5431C215.43 76.0126 197.943 76.4772 190.422 78.0258C190.422 67.4953 176.632 61.7652 169.737 60.2164C165.225 36.0578 140.591 29.2452 118.967 30.7934C115.206 23.0504 94.5209 12.9853 59.7349 16.8564C15.0062 21.834 2.38443 45.2466 -0.436127 60.2164C-13.2227 56.4993 -21.4336 61.7652 -23.9408 64.8627C-35.223 59.288 -44.3114 62.5399 -47.4454 64.8627C-96.335 58.6683 -114.199 81.8972 -117.019 94.286C-148.609 91.8082 -164.028 105.642 -167.789 112.869C-176.251 112.869 -183.772 112.869 -197.875 120.612C-211.978 128.355 -201.636 133.001 -167.789 132.227C-133.942 131.453 -73.7706 137.647 -39.9239 142.293C-6.07721 146.939 85.1208 146.939 114.267 143.841C143.412 140.744 182.9 139.196 196.063 139.97C209.225 140.744 245.892 144.616 265.636 143.841C285.38 143.067 336.15 142.293 372.818 142.293C402.151 142.293 423.901 138.679 431.109 136.873Z" fill="url(#paint0_linear_4_26)"/>
<path d="M30.4865 141.154C17.5964 140.553 11.0177 139.573 7.66026 136.651C3.36356 128.846 21.0875 127.395 30.4865 127.645C33.1719 118.039 41.0045 117.138 44.5851 117.889C55.8639 104.68 73.4536 109.383 80.8385 113.386C82.4498 106.782 86.8808 107.132 88.8948 108.133C104.47 63.7044 154.464 79.1141 177.514 92.3726C184.497 82.1661 196.984 82.6164 202.355 84.1173C202.355 73.9109 212.201 68.357 217.125 66.8559C220.347 43.4407 237.937 36.8376 253.379 38.3383C256.064 30.8335 270.835 21.078 295.674 24.83C327.614 29.6545 336.627 52.3467 338.641 66.8559C347.771 63.2532 353.634 68.357 355.425 71.3592C363.481 65.9561 369.971 69.1079 372.209 71.3592C407.12 65.3554 419.875 87.8696 421.889 99.8772C444.447 97.4756 455.457 110.884 458.143 117.889C464.185 117.889 469.556 117.889 479.626 125.393C489.697 132.898 482.312 137.401 458.143 136.651C433.974 135.9 391.007 141.904 366.838 146.407C342.669 150.91 277.547 150.91 256.735 147.908C235.923 144.906 207.726 143.405 198.327 144.155C188.927 144.906 162.744 148.658 148.646 147.908C134.547 147.157 98.2939 146.407 72.1108 146.407C51.1644 146.407 35.6336 142.905 30.4865 141.154Z" fill="url(#paint1_linear_4_26)"/>
</g>
<defs>
<linearGradient id="paint0_linear_4_26" x1="147.505" y1="22.5" x2="139.452" y2="138.373" gradientUnits="userSpaceOnUse">
<stop stop-color="#FFDBD3"/>
<stop offset="1" stop-color="#FF705F"/>
</linearGradient>
<linearGradient id="paint1_linear_4_26" x1="233" y1="30.3" x2="243.552" y2="142.154" gradientUnits="userSpaceOnUse">
<stop stop-color="#FFDAD1"/>
<stop offset="1" stop-color="#FF705F"/>
</linearGradient>
<clipPath id="clip0_4_26">
<rect width="375" height="150" fill="white"/>
</clipPath>
</defs>
</svg>
