<svg width="22" height="21" viewBox="0 0 22 21" fill="none" xmlns="http://www.w3.org/2000/svg">
<path d="M9.7716 0.975189C10.1449 -0.232968 11.8551 -0.23297 12.2284 0.975187L13.7889 6.025C13.9554 6.56372 14.4534 6.93112 15.0173 6.93112H20.199C21.4289 6.93112 21.9568 8.49195 20.9796 9.23853L16.6782 12.5244C16.2501 12.8515 16.0713 13.4109 16.2303 13.9257L17.8468 19.1568C18.2164 20.3528 16.8327 21.318 15.8379 20.5581L11.7805 17.4585C11.3197 17.1065 10.6803 17.1065 10.2195 17.4585L6.16209 20.5581C5.16735 21.318 3.7836 20.3528 4.15318 19.1568L5.76966 13.9257C5.92874 13.4109 5.74994 12.8515 5.32176 12.5244L1.02044 9.23853C0.043156 8.49195 0.571122 6.93112 1.80095 6.93112H6.98272C7.54658 6.93112 8.04465 6.56372 8.21112 6.025L9.7716 0.975189Z" fill="#FF9034"/>
</svg>
